<?xml version="1.0" standalone="no"?>
<!DOCTYPE svg PUBLIC "-//W3C//DTD SVG 20010904//EN"
 "http://www.w3.org/TR/2001/REC-SVG-20010904/DTD/svg10.dtd">
<svg version="1.0" xmlns="http://www.w3.org/2000/svg"
 width="480.000000pt" height="240.000000pt" viewBox="0 0 480.000000 240.000000"
 preserveAspectRatio="xMidYMid meet">
<metadata>
Created by potrace 1.16, written by Peter Selinger 2001-2019
</metadata>
<g transform="translate(0.000000,240.000000) scale(0.100000,-0.100000)"
fill="#000000" stroke="none">
<path d="M752 1887 c-35 -20 -62 -68 -62 -109 0 -36 0 -37 -137 -116 l-136
-79 -48 20 c-46 20 -49 20 -92 3 -53 -20 -78 -53 -84 -110 -6 -48 25 -103 70
-124 l27 -13 0 -160 c0 -90 -4 -159 -9 -159 -21 0 -70 -53 -81 -86 -24 -72 14
-142 90 -165 31 -10 44 -8 82 9 l45 20 134 -78 134 -78 5 -43 c3 -24 12 -54
20 -65 34 -54 119 -70 177 -34 39 24 54 50 58 104 l3 41 134 78 133 77 40 -20
c63 -33 130 -15 165 43 38 62 18 152 -40 182 l-30 16 0 159 0 159 30 16 c39
20 60 63 60 121 0 39 -5 51 -32 78 -44 44 -97 54 -149 28 l-39 -19 -139 80
c-88 50 -138 84 -135 92 9 23 -15 91 -41 115 -30 28 -117 38 -153 17z m-214
-525 l-173 -300 -3 145 -3 145 41 36 c34 30 42 46 48 85 l7 49 125 73 c69 40
126 71 128 70 2 -2 -75 -138 -170 -303z m548 215 l101 -57 1 -42 c2 -50 22
-82 62 -103 l30 -16 0 -157 c-1 -123 -3 -153 -12 -137 -14 24 -338 586 -346
600 -3 5 10 0 29 -11 19 -11 79 -46 135 -77z m-52 -251 l184 -318 -16 -29 -17
-29 -372 0 c-310 0 -373 2 -373 14 0 7 -6 19 -14 25 -11 9 20 69 173 335 l186
324 33 -2 c32 -2 36 -8 216 -320z m131 -459 c-11 -7 -73 -44 -137 -81 -116
-66 -117 -67 -143 -50 -32 21 -107 22 -138 1 -21 -13 -30 -10 -142 55 -66 38
-127 73 -135 78 -9 6 121 10 350 10 304 0 361 -2 345 -13z"/>
<path d="M1855 1546 c-5 -2 -22 -7 -37 -10 -39 -9 -88 -54 -109 -101 -15 -32
-19 -66 -19 -169 0 -154 16 -200 83 -244 36 -24 50 -27 122 -27 72 0 86 3 123
28 23 15 50 44 61 65 22 42 36 139 27 177 -6 25 -8 25 -107 25 l-100 0 3 -27
c3 -27 5 -28 76 -31 67 -3 72 -4 72 -25 0 -44 -21 -94 -50 -122 -26 -25 -40
-30 -98 -33 -76 -4 -108 12 -139 71 -26 49 -23 252 3 298 53 92 201 91 262 -1
30 -45 68 -49 65 -7 -3 38 -38 84 -83 107 -36 18 -133 34 -155 26z"/>
<path d="M3317 1543 c-4 -3 -7 -127 -7 -275 l0 -269 28 3 27 3 5 146 c4 126 8
150 24 168 46 51 142 44 176 -12 17 -28 20 -51 20 -169 l0 -138 31 0 31 0 -4
153 c-3 144 -4 156 -28 190 -44 64 -140 85 -213 48 l-37 -19 0 73 c0 40 -3 80
-6 89 -6 16 -35 22 -47 9z"/>
<path d="M3915 1546 c-5 -2 -22 -7 -37 -10 -39 -9 -88 -54 -109 -101 -15 -32
-19 -65 -19 -160 0 -142 11 -188 54 -231 48 -48 144 -68 222 -45 28 8 34 6 53
-20 14 -18 31 -29 46 -29 31 0 32 21 5 61 l-21 28 22 43 c18 35 23 64 27 158
6 166 -22 245 -100 283 -34 17 -122 31 -143 23z m104 -74 c64 -32 75 -59 80
-187 3 -102 1 -119 -19 -160 -26 -54 -61 -75 -127 -75 -61 0 -109 29 -130 78
-26 58 -24 235 3 286 36 70 121 95 193 58z"/>
<path d="M4277 1534 c-4 -4 -7 -126 -7 -271 l0 -263 170 0 170 0 0 25 0 25
-140 0 -140 0 -2 243 c-3 235 -4 242 -23 245 -12 2 -24 0 -28 -4z"/>
<path d="M2518 1389 c-40 -21 -58 -45 -58 -78 0 -31 37 -26 66 8 29 35 66 45
113 32 40 -12 60 -36 61 -72 0 -25 -3 -27 -76 -38 -105 -16 -160 -41 -180 -84
-33 -70 10 -148 92 -163 44 -8 112 2 142 22 19 13 22 13 22 -1 0 -10 10 -15
30 -15 l30 0 0 153 c0 174 -10 210 -70 239 -47 24 -125 22 -172 -3z m182 -223
c0 -77 -84 -139 -157 -115 -39 12 -57 41 -49 75 8 30 35 45 111 60 94 19 95
19 95 -20z"/>
<path d="M2980 1399 c-13 -6 -33 -17 -42 -26 -17 -15 -18 -15 -18 5 0 17 -6
22 -25 22 l-25 0 2 -272 3 -273 23 -3 c21 -3 22 -1 22 93 l0 96 30 -23 c42
-31 132 -36 180 -10 54 29 84 97 84 191 -1 102 -26 162 -83 190 -43 22 -109
26 -151 10z m103 -53 c45 -18 68 -58 74 -125 9 -108 -37 -177 -119 -175 -107
3 -157 178 -76 270 25 28 38 35 81 43 4 0 22 -5 40 -13z"/>
<path d="M2204 1387 c-2 -7 -3 -96 -2 -197 l3 -185 28 -3 27 -3 0 145 c0 136
1 147 23 171 16 19 36 28 72 33 41 6 50 11 50 27 0 17 -8 20 -48 23 -32 2 -57
-2 -73 -13 -21 -14 -24 -14 -24 0 0 19 -48 21 -56 2z"/>
</g>
</svg>
