<?xml version="1.0" standalone="no"?>
<!DOCTYPE svg PUBLIC "-//W3C//DTD SVG 20010904//EN"
 "http://www.w3.org/TR/2001/REC-SVG-20010904/DTD/svg10.dtd">
<svg version="1.0" xmlns="http://www.w3.org/2000/svg"
 width="2000.000000pt" height="2000.000000pt" viewBox="0 0 2000.000000 2000.000000"
 preserveAspectRatio="xMidYMid meet">
<metadata>
Created by potrace 1.16, written by Peter Selinger 2001-2019
</metadata>
<g transform="translate(0.000000,2000.000000) scale(0.100000,-0.100000)"
fill="#000000" stroke="none">
<path d="M0 10000 l0 -10000 10000 0 10000 0 0 10000 0 10000 -10000 0 -10000
0 0 -10000z m10366 9757 c656 -147 1156 -624 1323 -1259 45 -171 55 -256 55
-453 0 -182 -10 -279 -44 -415 -11 -41 -16 -78 -11 -83 4 -4 907 -527 2006
-1161 l1999 -1154 80 72 c282 253 592 400 948 451 386 55 814 -32 1143 -230
651 -393 974 -1146 809 -1883 -136 -608 -571 -1087 -1162 -1282 l-132 -44 0
-2318 c0 -1846 3 -2319 13 -2322 242 -74 390 -141 562 -256 156 -105 355 -304
458 -460 87 -132 172 -303 216 -438 123 -372 112 -812 -31 -1171 -226 -570
-689 -961 -1287 -1088 -114 -25 -147 -27 -346 -27 -191 -1 -235 2 -334 22
-344 70 -637 223 -886 463 l-90 86 -1980 -1144 c-1089 -629 -1987 -1148 -1995
-1153 -12 -7 -10 -24 13 -117 36 -145 46 -214 53 -368 19 -405 -114 -824 -367
-1148 -106 -136 -301 -312 -449 -405 -87 -55 -275 -144 -375 -177 -170 -58
-284 -76 -505 -82 -180 -5 -221 -3 -332 16 -215 37 -387 96 -572 199 -412 227
-726 634 -839 1087 -41 163 -51 250 -51 440 0 182 10 279 44 415 11 41 18 75
17 76 -5 5 -3993 2307 -4005 2311 -7 3 -43 -23 -80 -59 -319 -300 -742 -467
-1187 -468 -212 0 -371 25 -568 90 -1001 333 -1474 1477 -1007 2435 91 186
217 355 373 500 216 201 430 319 765 421 9 3 12 476 12 2322 l0 2318 -132 44
c-594 196 -1025 671 -1162 1282 -128 570 38 1168 441 1588 337 352 779 540
1268 540 447 0 847 -156 1190 -465 l80 -72 2002 1156 c1101 636 2004 1158
2007 1161 3 3 -3 39 -14 80 -34 136 -44 233 -44 415 0 242 32 427 108 625 221
570 711 979 1311 1094 127 24 129 24 360 21 191 -3 235 -7 331 -28z"/>
<path d="M6736 15665 c-1099 -634 -2003 -1158 -2007 -1162 -4 -4 4 -64 18
-133 25 -113 27 -146 27 -345 1 -191 -2 -235 -22 -334 -127 -630 -572 -1135
-1170 -1331 -52 -16 -100 -30 -108 -30 -12 0 -14 -332 -14 -2329 l0 -2329 28
-5 c15 -3 32 0 38 6 16 18 5254 9094 5254 9105 0 9 -32 42 -41 42 -2 0 -904
-520 -2003 -1155z"/>
<path d="M11235 16800 c-17 -19 -18 -23 -3 -48 9 -15 1191 -2063 2628 -4552
1436 -2489 2615 -4528 2618 -4532 4 -3 19 -4 35 -1 l27 5 0 2327 0 2327 -52
14 c-29 7 -92 27 -139 45 -570 217 -979 702 -1101 1306 -20 99 -23 143 -22
334 0 199 2 232 27 345 14 69 23 128 19 131 -8 8 -4011 2319 -4016 2319 -1 0
-11 -9 -21 -20z"/>
<path d="M6884 11803 l-2631 -4558 84 -95 c168 -191 286 -394 363 -628 l44
-132 5257 0 5257 0 27 87 c82 266 210 490 392 691 l71 78 -2629 4554 c-1446
2505 -2631 4555 -2632 4557 -2 1 -57 -10 -123 -24 -110 -25 -137 -27 -354 -27
-231 -1 -315 8 -475 49 -18 5 -349 -564 -2651 -4552z"/>
<path d="M4737 5553 c-2 -5 -7 -19 -10 -33 -6 -24 73 -70 1994 -1180 1101
-635 2005 -1156 2010 -1158 5 -2 48 31 96 73 253 222 508 348 853 422 68 14
131 18 320 18 209 0 247 -3 345 -24 344 -73 614 -216 881 -464 l71 -66 1994
1151 c1097 633 1996 1152 1998 1154 2 2 -3 27 -11 56 l-15 53 -5261 3 c-2893
1 -5263 -1 -5265 -5z"/>
</g>
</svg>
